<?xml version="1.0" encoding="UTF-8" standalone="no"?><svg xmlns="http://www.w3.org/2000/svg" xmlns:xlink="http://www.w3.org/1999/xlink" contentStyleType="text/css" height="545px" preserveAspectRatio="none" style="width:753px;height:545px;background:#FFFFFF;" version="1.1" viewBox="0 0 753 545" width="753px" zoomAndPan="magnify"><defs/><g><line style="stroke:#181818;stroke-width:0.5;stroke-dasharray:5.0,5.0;" x1="278" x2="278" y1="36.2969" y2="510.1563"/><line style="stroke:#181818;stroke-width:0.5;stroke-dasharray:5.0,5.0;" x1="701.5" x2="701.5" y1="36.2969" y2="510.1563"/><rect fill="#E2E2F0" height="30.2969" rx="2.5" ry="2.5" style="stroke:#181818;stroke-width:0.5;" width="87" x="235" y="5"/><text fill="#000000" font-family="sans-serif" font-size="14" lengthAdjust="spacing" textLength="73" x="242" y="24.9951">Utilisateur</text><rect fill="#E2E2F0" height="30.2969" rx="2.5" ry="2.5" style="stroke:#181818;stroke-width:0.5;" width="87" x="235" y="509.1563"/><text fill="#000000" font-family="sans-serif" font-size="14" lengthAdjust="spacing" textLength="73" x="242" y="529.1514">Utilisateur</text><rect fill="#E2E2F0" height="30.2969" rx="2.5" ry="2.5" style="stroke:#181818;stroke-width:0.5;" width="80" x="661.5" y="5"/><text fill="#000000" font-family="sans-serif" font-size="14" lengthAdjust="spacing" textLength="66" x="668.5" y="24.9951">Interface</text><rect fill="#E2E2F0" height="30.2969" rx="2.5" ry="2.5" style="stroke:#181818;stroke-width:0.5;" width="80" x="661.5" y="509.1563"/><text fill="#000000" font-family="sans-serif" font-size="14" lengthAdjust="spacing" textLength="66" x="668.5" y="529.1514">Interface</text><rect fill="#EEEEEE" height="3" style="stroke:#EEEEEE;stroke-width:1.0;" width="746.5" x="0" y="66.8633"/><line style="stroke:#000000;stroke-width:1.0;" x1="0" x2="746.5" y1="66.8633" y2="66.8633"/><line style="stroke:#000000;stroke-width:1.0;" x1="0" x2="746.5" y1="69.8633" y2="69.8633"/><rect fill="#EEEEEE" height="23.1328" style="stroke:#000000;stroke-width:2.0;" width="220" x="263.25" y="56.2969"/><text fill="#000000" font-family="sans-serif" font-size="13" font-weight="bold" lengthAdjust="spacing" textLength="201" x="269.25" y="72.3638">Initialisation de l'interface</text><polygon fill="#181818" points="689.5,106.5625,699.5,110.5625,689.5,114.5625,693.5,110.5625" style="stroke:#181818;stroke-width:1.0;"/><line style="stroke:#181818;stroke-width:1.0;" x1="278.5" x2="695.5" y1="110.5625" y2="110.5625"/><text fill="#000000" font-family="sans-serif" font-size="13" lengthAdjust="spacing" textLength="67" x="285.5" y="105.4966">S'identifier</text><polygon fill="#181818" points="289.5,135.6953,279.5,139.6953,289.5,143.6953,285.5,139.6953" style="stroke:#181818;stroke-width:1.0;"/><line style="stroke:#181818;stroke-width:1.0;stroke-dasharray:2.0,2.0;" x1="283.5" x2="700.5" y1="139.6953" y2="139.6953"/><text fill="#000000" font-family="sans-serif" font-size="13" lengthAdjust="spacing" textLength="319" x="295.5" y="134.6294">Charger les informations liées à l'agence bancaire</text><rect fill="#EEEEEE" height="3" style="stroke:#EEEEEE;stroke-width:1.0;" width="746.5" x="0" y="168.2617"/><line style="stroke:#000000;stroke-width:1.0;" x1="0" x2="746.5" y1="168.2617" y2="168.2617"/><line style="stroke:#000000;stroke-width:1.0;" x1="0" x2="746.5" y1="171.2617" y2="171.2617"/><rect fill="#EEEEEE" height="23.1328" style="stroke:#000000;stroke-width:2.0;" width="216" x="265.25" y="157.6953"/><text fill="#000000" font-family="sans-serif" font-size="13" font-weight="bold" lengthAdjust="spacing" textLength="197" x="271.25" y="173.7622">Utilisation de l'application</text><polygon fill="#181818" points="689.5,207.9609,699.5,211.9609,689.5,215.9609,693.5,211.9609" style="stroke:#181818;stroke-width:1.0;"/><line style="stroke:#181818;stroke-width:1.0;" x1="278.5" x2="695.5" y1="211.9609" y2="211.9609"/><text fill="#000000" font-family="sans-serif" font-size="13" lengthAdjust="spacing" textLength="276" x="285.5" y="206.895">Rechercher les clients de l'agence bancaire</text><polygon fill="#181818" points="289.5,237.0938,279.5,241.0938,289.5,245.0938,285.5,241.0938" style="stroke:#181818;stroke-width:1.0;"/><line style="stroke:#181818;stroke-width:1.0;stroke-dasharray:2.0,2.0;" x1="283.5" x2="700.5" y1="241.0938" y2="241.0938"/><text fill="#000000" font-family="sans-serif" font-size="13" lengthAdjust="spacing" textLength="399" x="295.5" y="236.0278">Afficher les informations liées aux clients de l'agence bancaire</text><polygon fill="#181818" points="689.5,266.2266,699.5,270.2266,689.5,274.2266,693.5,270.2266" style="stroke:#181818;stroke-width:1.0;"/><line style="stroke:#181818;stroke-width:1.0;" x1="278.5" x2="695.5" y1="270.2266" y2="270.2266"/><text fill="#000000" font-family="sans-serif" font-size="13" lengthAdjust="spacing" textLength="224" x="285.5" y="265.1606">Rechercher les comptes d'un client</text><polygon fill="#181818" points="289.5,295.3594,279.5,299.3594,289.5,303.3594,285.5,299.3594" style="stroke:#181818;stroke-width:1.0;"/><line style="stroke:#181818;stroke-width:1.0;stroke-dasharray:2.0,2.0;" x1="283.5" x2="700.5" y1="299.3594" y2="299.3594"/><text fill="#000000" font-family="sans-serif" font-size="13" lengthAdjust="spacing" textLength="347" x="295.5" y="294.2935">Afficher les informations liées aux comptes d'un client</text><polygon fill="#181818" points="689.5,324.4922,699.5,328.4922,689.5,332.4922,693.5,328.4922" style="stroke:#181818;stroke-width:1.0;"/><line style="stroke:#181818;stroke-width:1.0;" x1="278.5" x2="695.5" y1="328.4922" y2="328.4922"/><text fill="#000000" font-family="sans-serif" font-size="13" lengthAdjust="spacing" textLength="223" x="285.5" y="323.4263">Voir les informations liées au client</text><polygon fill="#181818" points="289.5,349.0586,279.5,353.0586,289.5,357.0586,285.5,353.0586" style="stroke:#181818;stroke-width:1.0;"/><line style="stroke:#181818;stroke-width:1.0;stroke-dasharray:2.0,2.0;" x1="283.5" x2="700.5" y1="353.0586" y2="353.0586"/><path d="M59,341.4922 L59,366.4922 L273,366.4922 L273,351.4922 L263,341.4922 L59,341.4922 " fill="#FEFFDD" style="stroke:#181818;stroke-width:0.5;"/><path d="M263,341.4922 L263,351.4922 L273,351.4922 L263,341.4922 " fill="#FEFFDD" style="stroke:#181818;stroke-width:0.5;"/><text fill="#000000" font-family="sans-serif" font-size="13" lengthAdjust="spacing" textLength="193" x="65" y="358.5591">Retour à la gestion des clients</text><polygon fill="#181818" points="689.5,388.7578,699.5,392.7578,689.5,396.7578,693.5,392.7578" style="stroke:#181818;stroke-width:1.0;"/><line style="stroke:#181818;stroke-width:1.0;" x1="278.5" x2="695.5" y1="392.7578" y2="392.7578"/><text fill="#000000" font-family="sans-serif" font-size="13" lengthAdjust="spacing" textLength="234" x="285.5" y="387.6919">Voir les informations liées à l'agence</text><polygon fill="#181818" points="289.5,413.3242,279.5,417.3242,289.5,421.3242,285.5,417.3242" style="stroke:#181818;stroke-width:1.0;"/><line style="stroke:#181818;stroke-width:1.0;stroke-dasharray:2.0,2.0;" x1="283.5" x2="700.5" y1="417.3242" y2="417.3242"/><path d="M54,405.7578 L54,430.7578 L273,430.7578 L273,415.7578 L263,405.7578 L54,405.7578 " fill="#FEFFDD" style="stroke:#181818;stroke-width:0.5;"/><path d="M263,405.7578 L263,415.7578 L273,415.7578 L263,405.7578 " fill="#FEFFDD" style="stroke:#181818;stroke-width:0.5;"/><text fill="#000000" font-family="sans-serif" font-size="13" lengthAdjust="spacing" textLength="198" x="60" y="422.8247">Retour à la gestion de l'agence</text><polygon fill="#181818" points="689.5,453.0234,699.5,457.0234,689.5,461.0234,693.5,457.0234" style="stroke:#181818;stroke-width:1.0;"/><line style="stroke:#181818;stroke-width:1.0;" x1="278.5" x2="695.5" y1="457.0234" y2="457.0234"/><text fill="#000000" font-family="sans-serif" font-size="13" lengthAdjust="spacing" textLength="100" x="285.5" y="451.9575">Se déconnecter</text><polygon fill="#181818" points="289.5,477.5898,279.5,481.5898,289.5,485.5898,285.5,481.5898" style="stroke:#181818;stroke-width:1.0;"/><line style="stroke:#181818;stroke-width:1.0;stroke-dasharray:2.0,2.0;" x1="283.5" x2="700.5" y1="481.5898" y2="481.5898"/><path d="M5,470.0234 L5,495.0234 L274,495.0234 L274,480.0234 L264,470.0234 L5,470.0234 " fill="#FEFFDD" style="stroke:#181818;stroke-width:0.5;"/><path d="M264,470.0234 L264,480.0234 L274,480.0234 L264,470.0234 " fill="#FEFFDD" style="stroke:#181818;stroke-width:0.5;"/><text fill="#000000" font-family="sans-serif" font-size="13" lengthAdjust="spacing" textLength="248" x="11" y="487.0903">Retour à la page initiale d'identification</text><!--MD5=[dafc26903572469d90080a45a389ae9f]
@startuml
== Initialisation de l'interface ==
Utilisateur -> Interface: S'identifier
Interface - -> Utilisateur : Charger les informations liées à l'agence bancaire

== Utilisation de l'application == 

Utilisateur -> Interface : Rechercher les clients de l'agence bancaire
Interface - -> Utilisateur : Afficher les informations liées aux clients de l'agence bancaire

Utilisateur -> Interface : Rechercher les comptes d'un client
Interface - -> Utilisateur : Afficher les informations liées aux comptes d'un client

Utilisateur -> Interface : Voir les informations liées au client
Interface - -> Utilisateur
note left: Retour à la gestion des clients

Utilisateur -> Interface : Voir les informations liées à l'agence
Interface - -> Utilisateur
note left: Retour à la gestion de l'agence

Utilisateur -> Interface : Se déconnecter
Interface - -> Utilisateur
note left: Retour à la page initiale d'identification
@enduml

PlantUML version 1.2022.6beta1(Unknown compile time)
(GPL source distribution)
Java Runtime: Java(TM) SE Runtime Environment
JVM: Java HotSpot(TM) 64-Bit Server VM
Default Encoding: UTF-8
Language: en
Country: US
--></g></svg>