<?xml version="1.0" encoding="UTF-8" standalone="no"?><svg xmlns="http://www.w3.org/2000/svg" xmlns:xlink="http://www.w3.org/1999/xlink" contentStyleType="text/css" height="890px" preserveAspectRatio="none" style="width:757px;height:890px;background:#FFFFFF;" version="1.1" viewBox="0 0 757 890" width="757px" zoomAndPan="magnify"><defs/><g><!--MD5=[13c7745981a6abb6004f7738a8ca5078]
entity 1--><g id="elem_1"><ellipse cx="312.5" cy="22" fill="#F1F1F1" rx="16" ry="16" style="stroke:#2F4F4F;stroke-width:1.5;"/><path d="M312.5,42 C316.5,42 319.5,42 323.5,38 C331.5,38 339.5,46 339.5,54 L339.5,58 C339.5,62 335.5,66 331.5,66 L293.5,66 C289.5,66 285.5,62 285.5,58 L285.5,54 C285.5,46 293.5,38 301.5,38 C305.5,42 308.5,42 312.5,42 " fill="#F1F1F1" style="stroke:#2F4F4F;stroke-width:1.5;"/><text fill="#000000" font-family="sans-serif" font-size="14" lengthAdjust="spacing" textLength="105" x="260" y="80.4951">Chef d'Agence</text></g><!--MD5=[34413ead84916979ab18eea1b2c854c1]
entity Guichetier--><g id="elem_Guichetier"><ellipse cx="43.5" cy="424" fill="#F1F1F1" rx="16" ry="16" style="stroke:#2F4F4F;stroke-width:1.5;"/><path d="M43.5,444 C47.5,444 50.5,444 54.5,440 C62.5,440 70.5,448 70.5,456 L70.5,460 C70.5,464 66.5,468 62.5,468 L24.5,468 C20.5,468 16.5,464 16.5,460 L16.5,456 C16.5,448 24.5,440 32.5,440 C36.5,444 39.5,444 43.5,444 " fill="#F1F1F1" style="stroke:#2F4F4F;stroke-width:1.5;"/><text fill="#000000" font-family="sans-serif" font-size="14" lengthAdjust="spacing" textLength="75" x="6" y="482.4951">Guichetier</text></g><g id="elem_2"><ellipse cx="312.5567" cy="139.0113" fill="#F0F8FF" rx="90.5567" ry="20.5113" style="stroke:#2F4F4F;stroke-width:0.5;"/><text fill="#000000" font-family="sans-serif" font-size="14" lengthAdjust="spacing" textLength="143" x="241.0567" y="141.858">Modifier infos client</text></g><g id="elem_3"><ellipse cx="312.7481" cy="217.8496" fill="#F0F8FF" rx="102.2481" ry="22.8496" style="stroke:#2F4F4F;stroke-width:0.5;"/><text fill="#000000" font-family="sans-serif" font-size="14" lengthAdjust="spacing" textLength="169" x="228.2481" y="220.6963">Créer un nouveau client</text></g><g id="elem_4"><ellipse cx="312.6163" cy="297.2233" fill="#F0F8FF" rx="94.1163" ry="21.2233" style="stroke:#2F4F4F;stroke-width:0.5;"/><text fill="#000000" font-family="sans-serif" font-size="14" lengthAdjust="spacing" textLength="151" x="237.1163" y="300.0699">Consulter un compte</text></g><g id="elem_5"><ellipse cx="312.3518" cy="373.0704" fill="#F0F8FF" rx="88.3518" ry="20.0704" style="stroke:#2F4F4F;stroke-width:0.5;"/><text fill="#000000" font-family="sans-serif" font-size="14" lengthAdjust="spacing" textLength="138" x="243.3518" y="375.917">Débiter un compte</text></g><g id="elem_6"><ellipse cx="647.6177" cy="284.1235" fill="#F0F8FF" rx="103.6177" ry="23.1235" style="stroke:#2F4F4F;stroke-width:0.5;"/><text fill="#000000" font-family="sans-serif" font-size="14" lengthAdjust="spacing" textLength="168" x="561.6177" y="286.9702">Rendre inactif un client</text></g><g id="elem_7"><ellipse cx="312.6144" cy="519.9229" fill="#F0F8FF" rx="90.1144" ry="20.4229" style="stroke:#2F4F4F;stroke-width:0.5;"/><text fill="#000000" font-family="sans-serif" font-size="14" lengthAdjust="spacing" textLength="142" x="241.6144" y="522.7696">Créditer un compte</text></g><g id="elem_8"><ellipse cx="312.3518" cy="596.0704" fill="#F0F8FF" rx="88.3518" ry="20.0704" style="stroke:#2F4F4F;stroke-width:0.5;"/><text fill="#000000" font-family="sans-serif" font-size="14" lengthAdjust="spacing" textLength="138" x="243.3518" y="598.917">Débiter un compte</text></g><g id="elem_9"><ellipse cx="312.5935" cy="675.8187" fill="#F0F8FF" rx="109.5935" ry="24.3187" style="stroke:#2F4F4F;stroke-width:0.5;"/><text fill="#000000" font-family="sans-serif" font-size="14" lengthAdjust="spacing" textLength="185" x="220.0935" y="678.6654">Créer un nouveau compte</text></g><g id="elem_10"><ellipse cx="312.4998" cy="772.2" fill="#F0F8FF" rx="171.4998" ry="36.7" style="stroke:#2F4F4F;stroke-width:0.5;"/><text fill="#000000" font-family="sans-serif" font-size="14" lengthAdjust="spacing" textLength="315" x="154.9998" y="775.0466">Effectuer un virement de compte à compte</text></g><g id="elem_11"><ellipse cx="312.6728" cy="863.8346" fill="#F0F8FF" rx="89.6728" ry="20.3346" style="stroke:#2F4F4F;stroke-width:0.5;"/><text fill="#000000" font-family="sans-serif" font-size="14" lengthAdjust="spacing" textLength="141" x="242.1728" y="866.6812">Clôturer un compte</text></g><g id="elem_12"><ellipse cx="647.2915" cy="44.1583" fill="#F0F8FF" rx="88.7915" ry="20.1583" style="stroke:#2F4F4F;stroke-width:0.5;"/><text fill="#000000" font-family="sans-serif" font-size="14" lengthAdjust="spacing" textLength="139" x="577.7915" y="47.005">Gérer les employés</text></g><!--MD5=[b34acc79596267709f362f0375c19753]
reverse link Guichetier to 1--><g id="link_Guichetier_1"><path d="M44.9318,386 C48.732,309.901 66.6121,179.195 141,101 C171.978,68.437 222.053,54.472 259.939,48.486 " fill="none" id="Guichetier-backto-1" style="stroke:#181818;stroke-width:1.0;"/><polygon fill="none" points="51.9128,386.651,44.1875,406.382,37.9222,386.14,51.9128,386.651" style="stroke:#181818;stroke-width:1.0;"/></g><!--MD5=[c7a5b8548792c7e56ce454203d0d82b6]
link Guichetier to 2--><g id="link_Guichetier_2"><path d="M47.1028,406.05 C53.1867,346.887 73.4663,236.57 141,177 C162.09,158.397 190.271,148.285 217.64,142.954 " fill="none" id="Guichetier-to-2" style="stroke:#181818;stroke-width:1.0;"/><polygon fill="#181818" points="222.739,142.013,213.1625,139.7127,217.822,142.9204,214.6143,147.5799,222.739,142.013" style="stroke:#181818;stroke-width:1.0;"/></g><!--MD5=[ead67df82673af83ab35ce3909a62693]
link Guichetier to 3--><g id="link_Guichetier_3"><path d="M54.2184,406.147 C66.847,363.012 93.164,295.395 141,258 C160.986,242.376 186.057,232.687 210.774,226.725 " fill="none" id="Guichetier-to-3" style="stroke:#181818;stroke-width:1.0;"/><polygon fill="#181818" points="215.711,225.581,206.041,223.7128,210.8397,226.7081,207.8443,231.5068,215.711,225.581" style="stroke:#181818;stroke-width:1.0;"/></g><!--MD5=[cb0aaff206d3582dc82213e4e1147b20]
link Guichetier to 4--><g id="link_Guichetier_4"><path d="M69.3307,406.33 C86.5413,382.103 111.603,352.511 141,335 C164.915,320.755 193.599,311.839 220.558,306.263 " fill="none" id="Guichetier-to-4" style="stroke:#181818;stroke-width:1.0;"/><polygon fill="#181818" points="225.571,305.261,215.9609,303.1053,220.6683,306.2424,217.5312,310.9497,225.571,305.261" style="stroke:#181818;stroke-width:1.0;"/></g><!--MD5=[7a2f83e68a44122d2327adc8da1d24b5]
link Guichetier to 5--><g id="link_Guichetier_5"><path d="M81.0654,436.003 C124.648,424.087 198.136,403.995 250.4,389.705 " fill="none" id="Guichetier-to-5" style="stroke:#181818;stroke-width:1.0;"/><polygon fill="#181818" points="255.389,388.341,245.6527,386.8561,250.566,389.6596,247.7625,394.5729,255.389,388.341" style="stroke:#181818;stroke-width:1.0;"/></g><!--MD5=[02505a0919ee62f9cfb66f7cb1b05ba9]
link Guichetier to 6--><g id="link_Guichetier_6"><path d="M81.0883,449.974 C158.503,456.93 343.313,465.798 484,411 C540.198,389.111 592.792,341.046 622.196,310.727 " fill="none" id="Guichetier-to-6" style="stroke:#181818;stroke-width:1.0;"/><polygon fill="#181818" points="626.014,306.755,616.8934,310.4719,622.5492,310.3599,622.6612,316.0156,626.014,306.755" style="stroke:#181818;stroke-width:1.0;"/></g><!--MD5=[e7d0dbf36e87b42c37f78d776e04d268]
link Guichetier to 7--><g id="link_Guichetier_7"><path d="M81.0654,456.134 C124.441,468.156 197.437,488.387 249.652,502.858 " fill="none" id="Guichetier-to-7" style="stroke:#181818;stroke-width:1.0;"/><polygon fill="#181818" points="254.638,504.241,247.034,497.9816,249.8198,502.905,244.8964,505.6907,254.638,504.241" style="stroke:#181818;stroke-width:1.0;"/></g><!--MD5=[4108b009f478b4070d22cab44784a6fb]
link Guichetier to 8--><g id="link_Guichetier_8"><path d="M69.0624,485.755 C86.2476,510.252 111.381,540.268 141,558 C166.108,573.032 196.512,582.13 224.653,587.633 " fill="none" id="Guichetier-to-8" style="stroke:#181818;stroke-width:1.0;"/><polygon fill="#181818" points="229.879,588.62,221.7769,583.0204,224.9657,587.6928,220.2933,590.8816,229.879,588.62" style="stroke:#181818;stroke-width:1.0;"/></g><!--MD5=[07cc2b202fae1340161319940d65c937]
link Guichetier to 9--><g id="link_Guichetier_9"><path d="M54.2964,485.754 C66.9942,528.8 93.3721,596.34 141,634 C159.865,648.917 183.294,658.628 206.683,664.926 " fill="none" id="Guichetier-to-9" style="stroke:#181818;stroke-width:1.0;"/><polygon fill="#181818" points="211.672,666.219,203.9632,660.0891,206.8319,664.9647,201.9563,667.8333,211.672,666.219" style="stroke:#181818;stroke-width:1.0;"/></g><!--MD5=[f51f88b465c7bd1593c38f3d05ef4ead]
link Guichetier to 10--><g id="link_Guichetier_10"><path d="M47.6458,485.643 C54.4307,544.494 75.6036,654.803 141,718 C152.635,729.244 166.598,738.147 181.458,745.198 " fill="none" id="Guichetier-to-10" style="stroke:#181818;stroke-width:1.0;"/><polygon fill="#181818" points="186.098,747.327,179.587,739.9374,181.5538,745.2413,176.2499,747.2081,186.098,747.327" style="stroke:#181818;stroke-width:1.0;"/></g><!--MD5=[b456eca25220bc7f8a352b5ddcdc1a6d]
link Guichetier to 11--><g id="link_Guichetier_11"><path d="M49.3227,485.788 C60.7369,573.321 92.1676,778.583 141,826 C161.482,845.889 189.957,856.2889 217.777,861.4891 " fill="none" id="Guichetier-to-11" style="stroke:#181818;stroke-width:1.0;"/><polygon fill="#181818" points="222.961,862.4007,214.7895,856.9028,218.0365,861.535,213.4044,864.782,222.961,862.4007" style="stroke:#181818;stroke-width:1.0;"/></g><!--MD5=[cdf617eab9002347da401fb82c9c9ca2]
link 1 to 6--><g id="link_1_6"><path d="M365.103,53.854 C400.644,62.343 447.798,77.093 484,101 C548.141,143.358 602.779,217.237 629.314,256.934 " fill="none" id="1-to-6" style="stroke:#181818;stroke-width:1.0;"/><polygon fill="#181818" points="632.101,261.134,630.4577,251.4232,629.3364,256.9678,623.7918,255.8466,632.101,261.134" style="stroke:#181818;stroke-width:1.0;"/></g><!--MD5=[6d92ce16f5629932b452ff9ae0cfeddc]
link 1 to 12--><g id="link_1_12"><path d="M365.166,44 C415.274,44 492.436,44 553.285,44 " fill="none" id="1-to-12" style="stroke:#181818;stroke-width:1.0;"/><polygon fill="#181818" points="558.377,44,549.377,40,553.377,44,549.377,48,558.377,44" style="stroke:#181818;stroke-width:1.0;"/></g><!--MD5=[f68a0d9e9c8df1a0e07454a27961cfa3]
@startuml
left to right direction

skinparam actorStyle awesome
left to right direction

skinparam usecase {
	BackgroundColor AliceBlue
	BorderColor DarkSlateGray
}

skinparam actor {
	BorderColor DarkSlateGray
}

skinparam agent {
	BorderColor DarkSlateGray
}


:Chef d'Agence: as 1
Guichetier <|- - 1
(Modifier infos client) as 2
(Créer un nouveau client) as 3
(Consulter un compte) as 4
(Débiter un compte) as 5
(Rendre inactif un client ) as 6
(Créditer un compte) as 7
(Débiter un compte) as 8
(Créer un nouveau compte) as 9
(Effectuer un virement de compte à compte) as 10
(Clôturer un compte) as 11
(Gérer les employés) as 12

Guichetier - -> 2
Guichetier - -> 3
Guichetier - -> 4
Guichetier - -> 5
Guichetier - -> 6
Guichetier - -> 7
Guichetier - -> 8
Guichetier - -> 9
Guichetier - -> 10
Guichetier - -> 11

1 - -> 6
1 - -> 12
@enduml

PlantUML version 1.2022.6beta5(Unknown compile time)
(GPL source distribution)
Java Runtime: Java(TM) SE Runtime Environment
JVM: Java HotSpot(TM) 64-Bit Server VM
Default Encoding: UTF-8
Language: en
Country: US
--></g></svg>
