<?xml version="1.0" encoding="UTF-8" standalone="no"?><svg xmlns="http://www.w3.org/2000/svg" xmlns:xlink="http://www.w3.org/1999/xlink" contentStyleType="text/css" height="782px" preserveAspectRatio="none" style="width:633px;height:782px;background:#FFFFFF;" version="1.1" viewBox="0 0 633 782" width="633px" zoomAndPan="magnify"><defs/><g><!--MD5=[13c7745981a6abb6004f7738a8ca5078]
entity 1--><g id="elem_1"><ellipse cx="250.5" cy="22" fill="#F1F1F1" rx="16" ry="16" style="stroke:#2F4F4F;stroke-width:1.5;"/><path d="M250.5,42 C254.5,42 257.5,42 261.5,38 C269.5,38 277.5,46 277.5,54 L277.5,58 C277.5,62 273.5,66 269.5,66 L231.5,66 C227.5,66 223.5,62 223.5,58 L223.5,54 C223.5,46 231.5,38 239.5,38 C243.5,42 246.5,42 250.5,42 " fill="#F1F1F1" style="stroke:#2F4F4F;stroke-width:1.5;"/><text fill="#000000" font-family="sans-serif" font-size="14" lengthAdjust="spacing" textLength="105" x="198" y="80.4951">Chef d'Agence</text></g><!--MD5=[34413ead84916979ab18eea1b2c854c1]
entity Guichetier--><g id="elem_Guichetier"><ellipse cx="43.5" cy="388" fill="#F1F1F1" rx="16" ry="16" style="stroke:#2F4F4F;stroke-width:1.5;"/><path d="M43.5,408 C47.5,408 50.5,408 54.5,404 C62.5,404 70.5,412 70.5,420 L70.5,424 C70.5,428 66.5,432 62.5,432 L24.5,432 C20.5,432 16.5,428 16.5,424 L16.5,420 C16.5,412 24.5,404 32.5,404 C36.5,408 39.5,408 43.5,408 " fill="#F1F1F1" style="stroke:#2F4F4F;stroke-width:1.5;"/><text fill="#000000" font-family="sans-serif" font-size="14" lengthAdjust="spacing" textLength="75" x="6" y="446.4951">Guichetier</text></g><g id="elem_2"><ellipse cx="250.5567" cy="139.0113" fill="#F0F8FF" rx="90.5567" ry="20.5113" style="stroke:#2F4F4F;stroke-width:0.5;"/><text fill="#000000" font-family="sans-serif" font-size="14" lengthAdjust="spacing" textLength="143" x="179.0567" y="141.858">Modifier infos client</text></g><g id="elem_3"><ellipse cx="250.7481" cy="217.8496" fill="#F0F8FF" rx="102.2481" ry="22.8496" style="stroke:#2F4F4F;stroke-width:0.5;"/><text fill="#000000" font-family="sans-serif" font-size="14" lengthAdjust="spacing" textLength="169" x="166.2481" y="220.6963">Créer un nouveau client</text></g><g id="elem_4"><ellipse cx="250.6163" cy="297.2233" fill="#F0F8FF" rx="94.1163" ry="21.2233" style="stroke:#2F4F4F;stroke-width:0.5;"/><text fill="#000000" font-family="sans-serif" font-size="14" lengthAdjust="spacing" textLength="151" x="175.1163" y="300.0699">Consulter un compte</text></g><g id="elem_5"><ellipse cx="250.3518" cy="373.0704" fill="#F0F8FF" rx="88.3518" ry="20.0704" style="stroke:#2F4F4F;stroke-width:0.5;"/><text fill="#000000" font-family="sans-serif" font-size="14" lengthAdjust="spacing" textLength="138" x="181.3518" y="375.917">Débiter un compte</text></g><g id="elem_6"><ellipse cx="523.6177" cy="284.1235" fill="#F0F8FF" rx="103.6177" ry="23.1235" style="stroke:#2F4F4F;stroke-width:0.5;"/><text fill="#000000" font-family="sans-serif" font-size="14" lengthAdjust="spacing" textLength="168" x="437.6177" y="286.9702">Rendre inactif un client</text></g><g id="elem_7"><ellipse cx="250.6144" cy="519.9229" fill="#F0F8FF" rx="90.1144" ry="20.4229" style="stroke:#2F4F4F;stroke-width:0.5;"/><text fill="#000000" font-family="sans-serif" font-size="14" lengthAdjust="spacing" textLength="142" x="179.6144" y="522.7696">Créditer un compte</text></g><g id="elem_8"><ellipse cx="250.3518" cy="596.0704" fill="#F0F8FF" rx="88.3518" ry="20.0704" style="stroke:#2F4F4F;stroke-width:0.5;"/><text fill="#000000" font-family="sans-serif" font-size="14" lengthAdjust="spacing" textLength="138" x="181.3518" y="598.917">Débiter un compte</text></g><g id="elem_9"><ellipse cx="250.5935" cy="675.8187" fill="#F0F8FF" rx="109.5935" ry="24.3187" style="stroke:#2F4F4F;stroke-width:0.5;"/><text fill="#000000" font-family="sans-serif" font-size="14" lengthAdjust="spacing" textLength="185" x="158.0935" y="678.6654">Créer un nouveau compte</text></g><g id="elem_10"><ellipse cx="250.6728" cy="755.8346" fill="#F0F8FF" rx="89.6728" ry="20.3346" style="stroke:#2F4F4F;stroke-width:0.5;"/><text fill="#000000" font-family="sans-serif" font-size="14" lengthAdjust="spacing" textLength="141" x="180.1728" y="758.6812">Clôturer un compte</text></g><g id="elem_11"><ellipse cx="523.2915" cy="44.1583" fill="#F0F8FF" rx="88.7915" ry="20.1583" style="stroke:#2F4F4F;stroke-width:0.5;"/><text fill="#000000" font-family="sans-serif" font-size="14" lengthAdjust="spacing" textLength="139" x="453.7915" y="47.005">Gérer les employés</text></g><!--MD5=[b34acc79596267709f362f0375c19753]
reverse link Guichetier to 1--><g id="link_Guichetier_1"><path d="M49.545,350.424 C58.0685,283.01 80.798,173.22 141,101 C155.85,83.185 177.725,70.207 197.949,61.177 " fill="none" id="Guichetier-backto-1" style="stroke:#181818;stroke-width:1.0;"/><polygon fill="none" points="56.499,351.225,47.2886,370.309,42.5883,349.647,56.499,351.225" style="stroke:#181818;stroke-width:1.0;"/></g><!--MD5=[c7a5b8548792c7e56ce454203d0d82b6]
link Guichetier to 2--><g id="link_Guichetier_2"><path d="M50.7359,370.153 C60.8186,318.686 85.4901,229.497 141,177 C151.332,167.229 164.317,159.953 177.679,154.541 " fill="none" id="Guichetier-to-2" style="stroke:#181818;stroke-width:1.0;"/><polygon fill="#181818" points="182.614,152.63,172.777,152.1474,177.9509,154.4344,175.664,159.6083,182.614,152.63" style="stroke:#181818;stroke-width:1.0;"/></g><!--MD5=[ead67df82673af83ab35ce3909a62693]
link Guichetier to 3--><g id="link_Guichetier_3"><path d="M60.8782,370.237 C76.7647,336.15 103.9096,287.943 141,258 C151.643,249.408 164.306,242.556 177.161,237.127 " fill="none" id="Guichetier-to-3" style="stroke:#181818;stroke-width:1.0;"/><polygon fill="#181818" points="181.902,235.19,172.0577,234.8917,177.2735,237.0814,175.0839,242.2973,181.902,235.19" style="stroke:#181818;stroke-width:1.0;"/></g><!--MD5=[cb0aaff206d3582dc82213e4e1147b20]
link Guichetier to 4--><g id="link_Guichetier_4"><path d="M81.0274,377.053 C98.2985,362.709 119.758,346.571 141,335 C155.216,327.256 171.315,320.605 186.678,315.131 " fill="none" id="Guichetier-to-4" style="stroke:#181818;stroke-width:1.0;"/><polygon fill="#181818" points="191.419,313.47,181.6025,312.6729,186.7006,315.1242,184.2492,320.2224,191.419,313.47" style="stroke:#181818;stroke-width:1.0;"/></g><!--MD5=[7a2f83e68a44122d2327adc8da1d24b5]
link Guichetier to 5--><g id="link_Guichetier_5"><path d="M81.1499,403.385 C107.386,398.65 143.605,392.113 175.728,386.315 " fill="none" id="Guichetier-to-5" style="stroke:#181818;stroke-width:1.0;"/><polygon fill="#181818" points="180.846,385.391,171.2791,383.0511,175.9253,386.278,172.6984,390.9242,180.846,385.391" style="stroke:#181818;stroke-width:1.0;"/></g><!--MD5=[02505a0919ee62f9cfb66f7cb1b05ba9]
link Guichetier to 6--><g id="link_Guichetier_6"><path d="M81.2462,417.714 C141.431,428.699 263.931,444.087 360,411 C417.744,391.112 470.678,341.348 499.579,310.347 " fill="none" id="Guichetier-to-6" style="stroke:#181818;stroke-width:1.0;"/><polygon fill="#181818" points="502.983,306.663,493.9378,310.5598,499.5902,310.3358,499.8142,315.9882,502.983,306.663" style="stroke:#181818;stroke-width:1.0;"/></g><!--MD5=[e7d0dbf36e87b42c37f78d776e04d268]
link Guichetier to 7--><g id="link_Guichetier_7"><path d="M81.2659,435.523 C98.9395,447.295 120.66,461.052 141,472 C159.977,482.215 181.567,492.098 200.464,500.215 " fill="none" id="Guichetier-to-7" style="stroke:#181818;stroke-width:1.0;"/><polygon fill="#181818" points="205.207,502.239,198.4998,495.027,200.6084,500.2761,195.3592,502.3847,205.207,502.239" style="stroke:#181818;stroke-width:1.0;"/></g><!--MD5=[4108b009f478b4070d22cab44784a6fb]
link Guichetier to 8--><g id="link_Guichetier_8"><path d="M61.3305,449.517 C77.3471,482.758 104.4296,529.327 141,558 C153.065,567.46 167.659,574.664 182.177,580.114 " fill="none" id="Guichetier-to-8" style="stroke:#181818;stroke-width:1.0;"/><polygon fill="#181818" points="187.094,581.896,179.996,575.0682,182.3933,580.192,177.2696,582.5893,187.094,581.896" style="stroke:#181818;stroke-width:1.0;"/></g><!--MD5=[07cc2b202fae1340161319940d65c937]
link Guichetier to 9--><g id="link_Guichetier_9"><path d="M51.8117,449.774 C62.8666,499.237 88.3925,583.326 141,634 C150.183,642.845 161.433,649.882 173.174,655.464 " fill="none" id="Guichetier-to-9" style="stroke:#181818;stroke-width:1.0;"/><polygon fill="#181818" points="177.872,657.611,171.3496,650.2314,173.3246,655.5323,168.0237,657.5073,177.872,657.611" style="stroke:#181818;stroke-width:1.0;"/></g><!--MD5=[f51f88b465c7bd1593c38f3d05ef4ead]
link Guichetier to 10--><g id="link_Guichetier_10"><path d="M45.9458,449.688 C50.4301,514.44 68.5369,643.086 141,718 C150.763,728.0935 163.356,735.5092 176.485,740.9566 " fill="none" id="Guichetier-to-10" style="stroke:#181818;stroke-width:1.0;"/><polygon fill="#181818" points="181.342,742.8758,174.4432,735.8468,176.6922,741.0374,171.5017,743.2865,181.342,742.8758" style="stroke:#181818;stroke-width:1.0;"/></g><!--MD5=[cdf617eab9002347da401fb82c9c9ca2]
link 1 to 6--><g id="link_1_6"><path d="M303.224,66.403 C322.011,75.74 342.827,87.556 360,101 C419.88,147.876 475.46,218.655 503.484,257.002 " fill="none" id="1-to-6" style="stroke:#181818;stroke-width:1.0;"/><polygon fill="#181818" points="506.436,261.062,504.3794,251.4303,503.496,257.0177,497.9085,256.1343,506.436,261.062" style="stroke:#181818;stroke-width:1.0;"/></g><!--MD5=[6a524c2af0ad53e1914815ba8659f260]
link 1 to 11--><g id="link_1_11"><path d="M303.111,44 C338.676,44 386.952,44 429.165,44 " fill="none" id="1-to-11" style="stroke:#181818;stroke-width:1.0;"/><polygon fill="#181818" points="434.281,44,425.281,40,429.281,44,425.281,48,434.281,44" style="stroke:#181818;stroke-width:1.0;"/></g><!--MD5=[26b7ecdef0b66babe7e6fc924a25d42d]
@startuml
left to right direction

skinparam actorStyle awesome
left to right direction

skinparam usecase {
	BackgroundColor AliceBlue
	BorderColor DarkSlateGray
}

skinparam actor {
	BorderColor DarkSlateGray
}

skinparam agent {
	BorderColor DarkSlateGray
}


:Chef d'Agence: as 1
Guichetier <|- - 1
(Modifier infos client) as 2
(Créer un nouveau client) as 3
(Consulter un compte) as 4
(Débiter un compte) as 5
(Rendre inactif un client ) as 6
(Créditer un compte) as 7
(Débiter un compte) as 8
(Créer un nouveau compte) as 9
(Effectuer un virement de compte à compte) as 10
(Clôturer un compte) as 10
(Gérer les employés) as 11

Guichetier - -> 2
Guichetier - -> 3
Guichetier - -> 4
Guichetier - -> 5
Guichetier - -> 6
Guichetier - -> 7
Guichetier - -> 8
Guichetier - -> 9
Guichetier - -> 10


1 - -> 6
1 - -> 11
@enduml

PlantUML version 1.2022.6beta5(Unknown compile time)
(GPL source distribution)
Java Runtime: Java(TM) SE Runtime Environment
JVM: Java HotSpot(TM) 64-Bit Server VM
Default Encoding: UTF-8
Language: en
Country: US
--></g></svg>